<?xml version="1.0" encoding="UTF-8"?>
<svg width="12px" height="14px" viewBox="0 0 12 14" version="1.1" xmlns="http://www.w3.org/2000/svg" xmlns:xlink="http://www.w3.org/1999/xlink">
    <!-- Generator: Sketch 55 (78076) - https://sketchapp.com -->
    <title>copy</title>
    <desc>Created with Sketch.</desc>
    <g id="Page-1" stroke="none" stroke-width="1" fill="none" fill-rule="evenodd">
        <g id="copy" fill="#000000" fill-rule="nonzero">
            <path d="M4,3 L11,3 C11.5522847,3 12,3.44771525 12,4 L12,13 C12,13.5522847 11.5522847,14 11,14 L4,14 C3.44771525,14 3,13.5522847 3,13 L3,4 C3,3.44771525 3.44771525,3 4,3 Z M4,4 L4,13 L11,13 L11,4 L4,4 Z" id="Rectangle"></path>
            <path d="M8,0 L8,1 L1,1 L1,11 L0,11 L0,1 C-1.11022302e-16,0.44771525 0.44771525,0 1,0 L8,0 Z" id="Path"></path>
        </g>
    </g>
</svg>