<svg width="16" height="16" viewBox="0 0 16 16" fill="none" xmlns="http://www.w3.org/2000/svg">
<path fill-rule="evenodd" clip-rule="evenodd" d="M3.38411 14.3201L13.3841 2.32012L12.6159 1.67993L10.3556 4.39223C9.64297 4.15015 8.85595 4.00002 8 4.00002C3.58172 4.00002 1 8.00002 1 8.00002C1 8.00002 2.31631 10.0395 4.67764 11.2058L2.61589 13.6799L3.38411 14.3201ZM5.33868 10.4126C4.6258 10.0897 4.00487 9.66725 3.48405 9.2324C2.94894 8.78563 2.53445 8.33766 2.25327 8.00002C2.53445 7.66238 2.94894 7.21442 3.48405 6.76764C4.00937 6.32904 4.63653 5.90301 5.35717 5.57913C5.12931 6.00206 5 6.48594 5 7.00002C5 7.97663 5.46665 8.84424 6.18913 9.39204L5.33868 10.4126ZM6.4561 11.8337L7.19435 10.9478C7.455 10.9818 7.72362 11 8 11C9.89461 11 11.4249 10.1433 12.516 9.2324C13.0511 8.78563 13.4655 8.33766 13.7467 8.00002C13.4655 7.66239 13.0511 7.21442 12.516 6.76764C12.1731 6.48135 11.7868 6.20042 11.3594 5.94975L12.0072 5.17236C13.9368 6.3527 15 8.00002 15 8.00002C15 8.00002 12.4183 12 8 12C7.45718 12 6.94209 11.9396 6.4561 11.8337ZM11 7.00002C11 6.80969 10.9823 6.62349 10.9484 6.44299L7.98422 9.99998L8 10C9.65685 10 11 8.65688 11 7.00002ZM8 6.00002C8 6.55231 7.55228 7.00002 7 7.00002C6.44772 7.00002 6 6.55231 6 6.00002C6 5.44774 6.44772 5.00002 7 5.00002C7.55228 5.00002 8 5.44774 8 6.00002Z" fill="#666666"/>
</svg>
