<svg xmlns="http://www.w3.org/2000/svg" fill="none" viewBox="0 0 16 16"><path d="M13.95 8.783c.033-.25.05-.508.05-.783a5 5 0 0 0-.058-.783L15.633 5.9a.41.41 0 0 0 .1-.508l-1.6-2.767c-.1-.183-.308-.242-.491-.183l-1.992.8a5.9 5.9 0 0 0-1.35-.784L10 .342A.4.4 0 0 0 9.6 0H6.4c-.2 0-.358.142-.392.342l-.3 2.116c-.491.2-.941.475-1.35.784l-1.991-.8a.4.4 0 0 0-.492.183L.283 5.392c-.1.175-.066.391.1.508l1.692 1.317A5 5 0 0 0 2 8c0 .258.017.533.058.783L.367 10.1a.41.41 0 0 0-.1.508l1.6 2.767c.1.183.308.242.491.183l1.992-.8c.417.317.858.584 1.35.784l.3 2.116c.042.2.2.342.4.342h3.2c.2 0 .367-.142.392-.342l.3-2.116c.491-.2.941-.467 1.35-.784l1.991.8c.184.067.392 0 .492-.183l1.6-2.767c.1-.183.058-.391-.1-.508zM8 11c-1.65 0-3-1.35-3-3s1.35-3 3-3 3 1.35 3 3-1.35 3-3 3"/></svg>
